# xmcd CD database file
#
# Track frame offsets:
#	150
#	14960
#	31577
#	53971
#	73309
#	92487
#	112560
#	133534
#	151200
#	167844
#	183678
#	204896
#	223388
#	238317
#	260452
#	278636
#	300477
#
# Disc length: 4222 seconds
#
# Revision: 0
# Processed by: cddbd v1.5.2PL0 Copyright (c) Steve Scherf et al.
# Submitted via: CDex 1.70beta2
#
DISCID=f0107c11
DTITLE=Michael Connelly - The Brass Verdict Disc 5
DYEAR=2008
DGENRE=Audio Book
TTITLE0=The Brass Verdict Disc 5-01
TTITLE1=The Brass Verdict Disc 5-02
TTITLE2=The Brass Verdict Disc 5-03
TTITLE3=The Brass Verdict Disc 5-04
TTITLE4=The Brass Verdict Disc 5-05
TTITLE5=The Brass Verdict Disc 5-06
TTITLE6=The Brass Verdict Disc 5-07
TTITLE7=The Brass Verdict Disc 5-08
TTITLE8=The Brass Verdict Disc 5-09
TTITLE9=The Brass Verdict Disc 5-10
TTITLE10=The Brass Verdict Disc 5-11
TTITLE11=The Brass Verdict Disc 5-12
TTITLE12=The Brass Verdict Disc 5-13
TTITLE13=The Brass Verdict Disc 5-14
TTITLE14=The Brass Verdict Disc 5-15
TTITLE15=The Brass Verdict Disc 5-16
TTITLE16=The Brass Verdict Disc 5-17
EXTD=YEAR: 2008
EXTT0=
EXTT1=
EXTT2=
EXTT3=
EXTT4=
EXTT5=
EXTT6=
EXTT7=
EXTT8=
EXTT9=
EXTT10=
EXTT11=
EXTT12=
EXTT13=
EXTT14=
EXTT15=
EXTT16=
PLAYORDER=
